Coordinates
version=1
nRows=32
nColumns=22
inDegrees=yes

Units are S.I. units (second, meters, Newtons, ...)
If the header above contains a line with 'inDegrees', this indicates whether rotational values are in degrees (yes) or radians (no).

endheader
time	pelvis_tilt	pelvis_list	pelvis_rotation	pelvis_tx	pelvis_ty	pelvis_tz	hip_flexion_r	hip_adduction_r	hip_rotation_r	knee_angle_r	ankle_angle_r	subtalar_angle_r	hip_flexion_l	hip_adduction_l	hip_rotation_l	knee_angle_l	ankle_angle_l	subtalar_angle_l	lumbar_extension	lumbar_bending	lumbar_rotation
      3.97000000	     -6.40153948	     -1.67146709	     -1.29756288	     -0.41373298	      0.94506219	     -0.16411327	      8.61626901	      5.33456538	     -3.27542267	    -18.69740826	     16.90366818	     -3.81287732	     29.10332826	     -5.16660239	     -4.56218459	    -23.02269044	      8.28077685	      3.20523963	     -8.21296610	     -1.03066832	      1.70240949
      3.98000000	     -6.27724304	     -1.73824643	     -1.10039761	     -0.41683034	      0.94578303	     -0.16345410	      8.51725092	      5.43240009	     -3.48964533	    -18.39457215	     16.71076370	     -3.73905916	     29.02605700	     -5.31906077	     -4.50102020	    -23.78763697	      8.21230580	      3.07005709	     -8.23471702	     -0.93785039	      1.58630494
      3.99000000	     -6.15830375	     -1.81860441	     -0.93564553	     -0.41979406	      0.94643519	     -0.16275962	      8.40230737	      5.55084152	     -3.66548654	    -18.06891731	     16.52494213	     -3.64795799	     28.92136690	     -5.49845305	     -4.39800419	    -24.60049124	      8.16793445	      2.87762924	     -8.24232398	     -0.83833830	      1.49823997
      4.00000000	     -6.04524848	     -1.90839994	     -0.82742627	     -0.42261946	      0.94701465	     -0.16201527	      8.28496053	      5.68616755	     -3.79654083	    -17.74275049	     16.34983386	     -3.56099060	     28.78277273	     -5.71547881	     -4.30504786	    -25.44626732	      8.14701494	      2.67791850	     -8.23433665	     -0.73511808	      1.48396760
      4.01000000	     -5.93707435	     -2.00616871	     -0.77044500	     -0.42530693	      0.94752183	     -0.16123014	      8.16744838	      5.83670412	     -3.88203022	    -17.42175159	     16.17888143	     -3.48362555	     28.60791595	     -5.96691811	     -4.22709997	    -26.31177048	      8.15758766	      2.48039930	     -8.21317796	     -0.62994301	      1.52284773
      4.02000000	     -5.83246876	     -2.10718795	     -0.76301073	     -0.42784899	      0.94796023	     -0.16042320	      8.05182797	      5.99620715	     -3.92075358	    -17.11370316	     16.00547988	     -3.41909469	     28.39060915	     -6.24450405	     -4.16847852	    -27.18121599	      8.20159087	      2.28571936	     -8.17984131	     -0.52487112	      1.60815406
      4.03000000	     -5.72996690	     -2.21188156	     -0.80430841	     -0.43026341	      0.94833282	     -0.15959812	      7.94875649	      6.16489023	     -3.91637981	    -16.83849347	     15.83793066	     -3.38059648	     28.13367609	     -6.54885474	     -4.13872467	    -28.05311460	      8.28402861	      2.12758403	     -8.13796022	     -0.42045030	      1.74779353
      4.04000000	     -5.62578749	     -2.31842728	     -0.88452271	     -0.43253767	      0.94865604	     -0.15877816	      7.84701480	      6.33848744	     -3.87364929	    -16.58523708	     15.66235058	     -3.36567781	     27.83045102	     -6.87138567	     -4.13391764	    -28.91641879	      8.40039622	      1.98402011	     -8.09088932	     -0.31442285	      1.91574064
      4.05000000	     -5.52125250	     -2.42707482	     -0.99711776	     -0.43468846	      0.94892925	     -0.15796711	      7.75612879	      6.51626241	     -3.79755512	    -16.36720169	     15.48683164	     -3.37143954	     27.48549833	     -7.20770379	     -4.14664431	    -29.76806069	      8.55479159	      1.86216813	     -8.03863502	     -0.20909998	      2.11092720
      4.06000000	     -5.41530081	     -2.53777968	     -1.13277823	     -0.43671209	      0.94916225	     -0.15719624	      7.67064401	      6.69465934	     -3.70016443	    -16.17729391	     15.31292089	     -3.39232140	     27.09951461	     -7.55175129	     -4.18079676	    -30.60229521	      8.73706629	      1.75092967	     -7.98140558	     -0.09826945	      2.31776477
      4.07000000	     -5.30903510	     -2.64924817	     -1.28020550	     -0.43861397	      0.94936001	     -0.15646644	      7.58936937	      6.87181661	     -3.58947339	    -16.01089135	     15.14253764	     -3.42352068	     26.67508485	     -7.89688468	     -4.23013575	    -31.41080541	      8.93996757	      1.63987748	     -7.91781109	      0.01330173	      2.52501037
      4.08000000	     -5.20496952	     -2.76129404	     -1.43006992	     -0.44039949	      0.94952374	     -0.15579158	      7.51255569	      7.04560274	     -3.47553472	    -15.86360737	     14.97913374	     -3.46140148	     26.21739435	     -8.23751459	     -4.28980616	    -32.18728220	      9.15660294	      1.51981947	     -7.84498043	      0.12653312	      2.72233825
      4.09000000	     -5.10169176	     -2.87706480	     -1.57679173	     -0.44207046	      0.94966336	     -0.15517014	      7.43521845	      7.21981274	     -3.35986344	    -15.72855177	     14.81910072	     -3.50909609	     25.72531050	     -8.57396385	     -4.35631087	    -32.92532625	      9.38226227	      1.38045104	     -7.76516581	      0.24436260	      2.90265755
      4.10000000	     -5.01131228	     -2.99462051	     -1.70824671	     -0.44363381	      0.94975881	     -0.15461775	      7.36824879	      7.39009289	     -3.26034836	    -15.60177140	     14.67208447	     -3.55535131	     25.21818039	     -8.89790806	     -4.41717973	    -33.62346226	      9.62019789	      1.22275978	     -7.66317527	      0.36508543	      3.05651045
      4.11000000	     -4.92812844	     -3.11704775	     -1.82170642	     -0.44509808	      0.94982559	     -0.15413569	      7.30383620	      7.56025080	     -3.17176339	    -15.47970435	     14.53044401	     -3.60471523	     24.69170983	     -9.21031317	     -4.46876046	    -34.27674060	      9.86212164	      1.04614234	     -7.54784097	      0.49256549	      3.18158848
      4.12000000	     -4.84550166	     -3.24245886	     -1.91317592	     -0.44646007	      0.94988539	     -0.15372170	      7.23045010	      7.73017556	     -3.08585540	    -15.35345800	     14.38423820	     -3.66902133	     24.13766238	     -9.50500399	     -4.50269509	    -34.87799674	     10.09028498	      0.84538117	     -7.42779524	      0.62274393	      3.27087784
      4.13000000	     -4.75248875	     -3.36101926	     -1.97910897	     -0.44773111	      0.94995455	     -0.15337913	      7.14632308	      7.88526718	     -3.03313645	    -15.23998179	     14.24909014	     -3.78020533	     23.54593839	     -9.77037096	     -4.52257813	    -35.41872566	     10.27769928	      0.60738225	     -7.31777173	      0.74198257	      3.32742921
      4.14000000	     -4.70614554	     -3.49321203	     -2.01253128	     -0.44893156	      0.94994084	     -0.15313685	      7.10474463	      8.04983961	     -2.98320169	    -15.12174739	     14.11531115	     -3.82829528	     22.99504503	    -10.01929396	     -4.48864139	    -35.91748632	     10.47977336	      0.43719696	     -7.15164870	      0.88403168	      3.33955434
      4.15000000	     -4.65291778	     -3.61793533	     -2.01991867	     -0.45004583	      0.94994152	     -0.15297520	      7.05349386	      8.19955577	     -2.96181219	    -15.00804486	     13.98816012	     -3.88650679	     22.41348753	    -10.23324997	     -4.43190216	    -36.34676343	     10.63202298	      0.27996442	     -6.99431104	      1.01553004	      3.32422515
      4.16000000	     -4.60400476	     -3.73390144	     -2.00538633	     -0.45109226	      0.94994533	     -0.15291093	      7.01317950	      8.33238759	     -2.96161008	    -14.91180340	     13.86943085	     -3.94905981	     21.80912764	    -10.40725412	     -4.35005923	    -36.68793484	     10.72725514	      0.16659055	     -6.83418423	      1.14062054	      3.27581573
      4.17000000	     -4.55943575	     -3.84221271	     -1.97298237	     -0.45210147	      0.94993870	     -0.15293464	      6.98828564	      8.44983352	     -2.98226562	    -14.83762444	     13.75392764	     -4.00376684	     21.19453009	    -10.54489128	     -4.24537813	    -36.95030216	     10.77438562	      0.11869448	     -6.67752042	      1.25822801	      3.21061145
      4.18000000	     -4.51969909	     -3.93344646	     -1.92804847	     -0.45307949	      0.94993539	     -0.15307853	      6.98168835	      8.53956855	     -3.01050971	    -14.78784551	     13.63736831	     -4.05100180	     20.55715748	    -10.63068690	     -4.11873693	    -37.10028122	     10.75243053	      0.15261885	     -6.52493081	      1.36576253	      3.12979852
      4.19000000	     -4.45598777	     -4.00376707	     -1.87452882	     -0.45395875	      0.94997377	     -0.15329830	      6.93154216	      8.60220416	     -3.03952334	    -14.71523522	     13.56611346	     -4.13163040	     19.84671850	    -10.67723496	     -4.02527780	    -37.10057834	     10.73520957	      0.31859245	     -6.40078585	      1.44938508	      3.02533414
      4.20000000	     -4.42406082	     -4.06783066	     -1.81059928	     -0.45482915	      0.94996305	     -0.15361396	      6.92987524	      8.64965988	     -3.09990674	    -14.66524776	     13.47380709	     -4.17449430	     19.15090953	    -10.69995114	     -3.94732643	    -36.96798727	     10.68677015	      0.57297783	     -6.25069032	      1.53218527	      2.89961230
      4.21000000	     -4.38445851	     -4.12141960	     -1.75287887	     -0.45566660	      0.94995351	     -0.15402659	      6.92839766	      8.67811480	     -3.15168669	    -14.63556436	     13.41351941	     -4.21321825	     18.40678292	    -10.69855215	     -3.90868755	    -36.66794494	     10.70976523	      0.95120156	     -6.12061773	      1.61235289	      2.78484680
      4.22000000	     -4.35239034	     -4.18576375	     -1.69807336	     -0.45646359	      0.94991892	     -0.15447411	      6.92699898	      8.71722743	     -3.19714342	    -14.59686546	     13.38154505	     -4.24680749	     17.64333905	    -10.70534063	     -3.90529226	    -36.20292944	     10.82594458	      1.43584414	     -5.98826184	      1.70152347	      2.69285243
      4.23000000	     -4.32547981	     -4.24474503	     -1.63979297	     -0.45722622	      0.94986789	     -0.15499190	      6.93733885	      8.74505543	     -3.25313230	    -14.57216349	     13.35063296	     -4.27055787	     16.86147087	    -10.70573864	     -3.95909545	    -35.56484135	     11.04459655	      1.93340861	     -5.85737607	      1.78958297	      2.57747752
      4.24000000	     -4.30461947	     -4.31202185	     -1.57992067	     -0.45795588	      0.94979475	     -0.15555548	      6.95330464	      8.77937996	     -3.30196749	    -14.55060346	     13.32471075	     -4.28807271	     16.07432002	    -10.71904615	     -4.06552336	    -34.76422000	     11.37230466	      2.41679927	     -5.72601885	      1.88946202	      2.45892905
      4.25000000	     -4.28798447	     -4.38366439	     -1.51368314	     -0.45864805	      0.94970671	     -0.15616847	      6.97695687	      8.81515813	     -3.35471794	    -14.53951160	     13.30857298	     -4.30226122	     15.29032010	    -10.73844825	     -4.21484871	    -33.81638372	     11.78478786	      2.83563247	     -5.59564653	      1.99561375	      2.33419200
      4.26000000	     -4.27463109	     -4.46010818	     -1.43890130	     -0.45931420	      0.94960535	     -0.15682553	      7.01052385	      8.85300518	     -3.41263382	    -14.54208339	     13.30066833	     -4.31430803	     14.52122932	    -10.76316140	     -4.39761804	    -32.74700593	     12.24940763	      3.16993610	     -5.46989638	      2.10890095	      2.19931353
      4.27000000	     -4.26619160	     -4.53825881	     -1.34719008	     -0.45992352	      0.94949983	     -0.15754530	      7.04645511	      8.88893398	     -3.47660923	    -14.54493731	     13.28200191	     -4.32309779	     13.78273080	    -10.78571073	     -4.60425218	    -31.59344855	     12.71889225	      3.42600084	     -5.33759162	      2.22665780	      2.04978647
      4.28000000	     -4.25586784	     -4.61372701	     -1.23887777	     -0.46051160	      0.94940859	     -0.15830776	      7.08224118	      8.91923252	     -3.55042090	    -14.55074136	     13.25936853	     -4.33098904	     13.07914388	    -10.80038096	     -4.82773920	    -30.39247548	     13.16378164	      3.60182221	     -5.21718046	      2.33783622	      1.88205963
